<?xml version="1.0" encoding="utf-8"?>
<!-- Generator: Adobe Illustrator 24.1.2, SVG Export Plug-In . SVG Version: 6.00 Build 0)  -->
<svg version="1.1" id="Layer_1" xmlns="http://www.w3.org/2000/svg" xmlns:xlink="http://www.w3.org/1999/xlink" x="0px" y="0px"
	 viewBox="0 0 680 284.68" style="enable-background:new 0 0 680 284.68;" xml:space="preserve">
<style type="text/css">
	.st0{stroke:#000000;stroke-miterlimit:10;}
	.st1{fill:#11468F;}
	.st2{fill:#DA1212;stroke:#000000;stroke-miterlimit:10;}
	.st3{fill:#11468F;stroke:#000000;stroke-miterlimit:10;}
</style>
<g>
	<path class="st0" d="M95.09,140.95c-0.01,0.46-0.03,0.93-0.03,1.39c0,25.89,20.82,46.93,46.62,47.27v0.01l-94.56-0.17V94.89
		l94.56,0.17v0.01C116.34,95.42,95.81,115.71,95.09,140.95z"/>
	<path class="st0" d="M210.06,189.74c3.31,23.04,8.98,45.3,16.77,66.53c-19.46,14.46-42.75,24.05-68.07,26.95
		c-5.38,0.64-10.86,0.96-16.42,0.96c-0.22,0-0.43,0-0.66-0.01c-36.38-0.16-69.53-14.03-94.56-36.68
		c-17.31-15.69-30.73-35.59-38.63-58.1c-5.19-14.72-8-30.55-8-47.04c0-0.53,0-1.04,0.03-1.56c0.16-16.1,3.02-31.56,8.13-45.95
		c7.93-22.31,21.28-42.04,38.47-57.63c25.03-22.66,58.18-36.52,94.56-36.68c0.2-0.01,0.39-0.01,0.59-0.01h0.16
		c5.52,0,10.97,0.33,16.32,0.96c25.32,2.9,48.61,12.49,68.07,26.95c-7.74,21.11-13.4,43.22-16.71,66.09
		c-0.03,0.22-0.07,0.45-0.09,0.68l-51.27-0.09l-16.29-0.03h-0.79l-94.56-0.17v94.56l94.56,0.17h0.66l16.42,0.03L210.06,189.74z"/>
	<g>
		<path class="st1" d="M442.44,94.39l-68.49-0.12l-43.14-0.07l-24.73-0.05l-69.83-0.12L210.7,94c3.23-22.04,8.73-43.83,16.37-64.79
			c3.07,2.3,6.04,4.72,8.85,7.2c6.15,5.44,11.88,11.46,17.01,17.9l0.89,1.12V1.2l76.49,0.13v28.44l0.94-1.7
			c2.75-4.97,5.69-9.86,8.76-14.54c2.66,4.07,5.16,8.17,7.44,12.21l0.94,1.65V1.53c0.04-0.06,0.08-0.11,0.13-0.17l76.36,0.14v55.66
			l0.9-1.16c5.1-6.61,10.83-12.81,17.01-18.43c3.27-2.96,6.69-5.77,10.15-8.36c7.67,21.05,13.2,42.99,16.43,65.23L442.44,94.39z"/>
		<path d="M254.32,1.7l75.49,0.13v26v3.87l1.88-3.39c2.62-4.74,5.42-9.4,8.32-13.87c2.5,3.85,4.85,7.72,7.01,11.54l1.87,3.31v-3.8
			V1.86L424.37,2v53.69v2.93l1.79-2.32c5.08-6.59,10.78-12.77,16.95-18.36c3.09-2.79,6.31-5.45,9.58-7.92
			c7.47,20.64,12.89,42.14,16.09,63.93l-26.34-0.05l-17.07-0.03l-21.39-0.04l-30.02-0.05l-26.07-0.04l-17.07-0.03l-24.73-0.05
			l-30.13-0.05l-22.63-0.04l-17.07-0.03l-24.97-0.04c3.2-21.59,8.59-42.93,16.03-63.48c2.87,2.17,5.65,4.45,8.28,6.77
			c6.13,5.42,11.83,11.42,16.95,17.84l1.78,2.24v-2.86V1.7 M253.32,0.7v53.31c-5.16-6.47-10.87-12.49-17.07-17.97
			c-3.02-2.68-6.17-5.23-9.42-7.63c-7.74,21.11-13.4,43.22-16.71,66.09l26.12,0.04l17.07,0.03l22.63,0.04l30.13,0.05l24.73,0.05
			l17.07,0.03l26.07,0.04l30.02,0.05l21.39,0.04l17.07,0.03l27.5,0.05c-3.31-23.04-8.98-45.3-16.77-66.53
			c-3.72,2.74-7.3,5.69-10.73,8.79c-6.23,5.65-11.94,11.83-17.07,18.49V1l-77.11-0.14c-0.13,0.17-0.26,0.34-0.38,0.51v24.13
			c-2.48-4.39-5.12-8.68-7.88-12.87c-3.26,4.94-6.32,10.01-9.19,15.21v-27L253.32,0.7L253.32,0.7z"/>
	</g>
	<path class="st2" d="M584.94,142.34c0,26.11-21.17,47.28-47.28,47.28c-0.22,0-0.43,0-0.66-0.01c-6.03-0.08-11.79-1.29-17.07-3.43
		v3.41l-49.96-0.09l-27.53-0.05l-17.07-0.03l-21.55-0.04l-29.75-0.05l-26.19-0.04l-17.07-0.03l-24.9-0.05l-29.64-0.05l-22.94-0.04
		l-17.07-0.03l-26.28-0.04c0.04,0.24,0.07,0.46,0.09,0.68l-51.3-0.09v-2.96c-5.12,1.89-10.65,2.93-16.42,2.93
		c-0.22,0-0.43,0-0.66-0.01c-25.81-0.34-46.62-21.38-46.62-47.27c0-0.46,0.01-0.93,0.03-1.39l46.6,0.08l17.07,0.03l30.85,0.05
		l17.1,0.04l29.54,0.05l17.07,0.03l30.85,0.05l17.09,0.03l29.55,0.05l17.07,0.03l30.86,0.05l17.09,0.04l29.54,0.05l17.07,0.03
		l30.86,0.05l17.09,0.03c0-0.22,0-0.46,0.01-0.68l29.52,0.05l17.07,0.03l47.92,0.08C584.94,141.51,584.94,141.93,584.94,142.34z"/>
	<path class="st0" d="M679.5,142.34c0,16.67-2.88,32.66-8.16,47.52c-8.13,22.88-21.96,43.04-39.78,58.79
		c-25.02,22.12-57.89,35.54-93.9,35.54c-0.22,0-0.43,0-0.66-0.01c-5.78-0.01-11.48-0.38-17.07-1.09
		c-24.81-3.09-47.64-12.59-66.76-26.81c7.74-21.11,13.4-43.22,16.69-66.09c0.04-0.22,0.08-0.45,0.11-0.68l49.96,0.09l17.07,0.03
		h0.66c26.11,0,47.28-21.17,47.28-47.28c0-0.41,0-0.83-0.01-1.23c-0.66-25.49-21.5-45.98-47.14-46.05H537l-17.07-0.03l-49.99-0.09
		c-3.31-23.04-8.98-45.3-16.77-66.53C472.29,14.2,495.12,4.69,519.93,1.6c5.59-0.71,11.29-1.08,17.07-1.09
		c0.2-0.01,0.39-0.01,0.59-0.01h0.16c35.97,0.03,68.82,13.45,93.81,35.54c17.94,15.85,31.85,36.2,39.94,59.26
		c5.07,14.41,7.88,29.87,7.99,45.98C679.5,141.63,679.5,141.99,679.5,142.34z"/>
	<path class="st3" d="M469.86,190.19c-3.3,22.87-8.96,44.98-16.69,66.09c-3.72-2.74-7.3-5.69-10.73-8.79
		c-6.23-5.65-11.94-11.83-17.07-18.49v54.99l-77.08-0.13c-0.14-0.17-0.28-0.35-0.41-0.54v-24.13c-2.48,4.39-5.12,8.68-7.88,12.87
		c-3.26-4.94-6.32-10.01-9.19-15.21v26.98l-77.49-0.14v-53.01c-5.16,6.47-10.87,12.49-17.07,17.97c-3.02,2.68-6.17,5.23-9.42,7.63
		c-7.79-21.24-13.46-43.5-16.77-66.53l26.19,0.05l17.07,0.03l22.71,0.04l30.02,0.05l24.76,0.04l17.07,0.03l26.04,0.05l30.13,0.05
		l21.32,0.04l17.07,0.03L469.86,190.19z"/>
	<path class="st2" d="M584.93,141.11L537,141.03L519.93,141l-29.52-0.05l-17.11-0.03l-30.85-0.07l-17.07-0.03l-29.52-0.05
		l-17.11-0.03l-30.85-0.05l-17.07-0.03l-29.54-0.05l-17.11-0.03l-30.84-0.07l-17.07-0.03l-29.54-0.05l-17.13-0.03
		c0.01,0.22,0.01,0.46,0.03,0.68l-30.85-0.05l-17.07-0.03l-46.6-0.08c0.72-25.24,21.25-45.53,46.6-45.88
		c0.18-0.01,0.38-0.01,0.56-0.01h0.22c5.73,0.01,11.2,1.05,16.29,2.93v-2.9l51.27,0.09l26.21,0.05l17.07,0.03l22.87,0.04l29.75,0.05
		l24.87,0.04l17.07,0.03l26.21,0.05l29.64,0.05l21.63,0.04l17.07,0.03l27.59,0.04c-0.04-0.24-0.07-0.46-0.09-0.68l49.99,0.09v3.47
		c5.28-2.14,11.05-3.35,17.07-3.43c0.18-0.01,0.38-0.01,0.56-0.01h0.22C563.43,95.13,584.27,115.61,584.93,141.11z"/>
</g>
</svg>
